# xmcd
#
# Track frame offsets:
#	150
#	16186
#	36415
#	54146
#	70075
#	94151
#	118832
#
# Disc length: 1762 seconds
#
# Revision: 0
# Processed by: cddbd v1.5.1PL0 Copyright (c) Steve Scherf et al.
# Submitted via: dBpowerAMP V4.0
#
DISCID=5406e007
DTITLE=Cam Penner and the gravel road - drive
DYEAR=1900
DGENRE=Country
TTITLE0=bootlegger
TTITLE1=1000 miles
TTITLE2=my darling my dear
TTITLE3=i think about you
TTITLE4=montana sky
TTITLE5=taste of nicotine
TTITLE6=the waltz
EXTD=good
EXTT0=
EXTT1=
EXTT2=
EXTT3=
EXTT4=
EXTT5=
EXTT6=
PLAYORDER=
